<mxfile host="app.diagrams.net" agent="Mozilla/5.0 (Macintosh; Intel Mac OS X 10_15_7) AppleWebKit/605.1.15 (KHTML, like Gecko) Version/17.6 Safari/605.1.15" version="24.7.10">
  <diagram name="Page-1" id="eqq6CvEaXlRUar0ok19Y">
    <mxGraphModel grid="1" page="1" gridSize="10" guides="1" tooltips="1" connect="1" arrows="1" fold="1" pageScale="1" pageWidth="850" pageHeight="1100" background="none" math="0" shadow="0">
      <root>
        <mxCell id="0" />
        <mxCell id="1" parent="0" />
        <mxCell id="QWLUl-Ayc574_Iat3-mf-1" value="" style="rounded=0;whiteSpace=wrap;html=1;" vertex="1" parent="1">
          <mxGeometry x="155" y="372.47" width="140" height="80" as="geometry" />
        </mxCell>
        <mxCell id="UNGKWyFu4V4kKL_8pKXb-60" style="edgeStyle=orthogonalEdgeStyle;rounded=0;orthogonalLoop=1;jettySize=auto;html=1;endArrow=none;endFill=0;" edge="1" parent="1" target="UNGKWyFu4V4kKL_8pKXb-58">
          <mxGeometry relative="1" as="geometry">
            <Array as="points">
              <mxPoint x="245" y="454.47" />
              <mxPoint x="245" y="472.47" />
              <mxPoint x="425" y="472.47" />
            </Array>
            <mxPoint x="245" y="454.47" as="sourcePoint" />
          </mxGeometry>
        </mxCell>
        <mxCell id="UNGKWyFu4V4kKL_8pKXb-1" value="Copia de Libro" style="rounded=0;whiteSpace=wrap;html=1;" vertex="1" parent="1">
          <mxGeometry x="165" y="382.47" width="120" height="60" as="geometry" />
        </mxCell>
        <mxCell id="UNGKWyFu4V4kKL_8pKXb-2" value="Número de copia" style="ellipse;whiteSpace=wrap;html=1;" vertex="1" parent="1">
          <mxGeometry x="15" y="302.47" width="120" height="50" as="geometry" />
        </mxCell>
        <mxCell id="UNGKWyFu4V4kKL_8pKXb-4" value="Libro" style="rounded=0;whiteSpace=wrap;html=1;" vertex="1" parent="1">
          <mxGeometry x="535" y="392.47" width="120" height="60" as="geometry" />
        </mxCell>
        <mxCell id="UNGKWyFu4V4kKL_8pKXb-5" value="&lt;u&gt;ISBN&lt;/u&gt;" style="ellipse;whiteSpace=wrap;html=1;" vertex="1" parent="1">
          <mxGeometry x="645" y="312.47" width="120" height="50" as="geometry" />
        </mxCell>
        <mxCell id="UNGKWyFu4V4kKL_8pKXb-6" value="Año" style="ellipse;whiteSpace=wrap;html=1;" vertex="1" parent="1">
          <mxGeometry x="685" y="372.47" width="120" height="50" as="geometry" />
        </mxCell>
        <mxCell id="UNGKWyFu4V4kKL_8pKXb-7" value="Título" style="ellipse;whiteSpace=wrap;html=1;" vertex="1" parent="1">
          <mxGeometry x="685" y="452.47" width="120" height="50" as="geometry" />
        </mxCell>
        <mxCell id="QWLUl-Ayc574_Iat3-mf-25" style="edgeStyle=orthogonalEdgeStyle;rounded=0;orthogonalLoop=1;jettySize=auto;html=1;entryX=0;entryY=1;entryDx=0;entryDy=0;endArrow=none;endFill=0;" edge="1" parent="1" source="UNGKWyFu4V4kKL_8pKXb-8" target="QWLUl-Ayc574_Iat3-mf-17">
          <mxGeometry relative="1" as="geometry" />
        </mxCell>
        <mxCell id="QWLUl-Ayc574_Iat3-mf-26" style="edgeStyle=orthogonalEdgeStyle;rounded=0;orthogonalLoop=1;jettySize=auto;html=1;exitX=1;exitY=0;exitDx=0;exitDy=0;entryX=0;entryY=1;entryDx=0;entryDy=0;endArrow=none;endFill=0;" edge="1" parent="1" source="UNGKWyFu4V4kKL_8pKXb-8" target="QWLUl-Ayc574_Iat3-mf-18">
          <mxGeometry relative="1" as="geometry">
            <Array as="points">
              <mxPoint x="625" y="226" />
              <mxPoint x="625" y="220" />
              <mxPoint x="658" y="220" />
            </Array>
          </mxGeometry>
        </mxCell>
        <mxCell id="QWLUl-Ayc574_Iat3-mf-27" style="edgeStyle=orthogonalEdgeStyle;rounded=0;orthogonalLoop=1;jettySize=auto;html=1;entryX=0;entryY=0.5;entryDx=0;entryDy=0;endArrow=none;endFill=0;" edge="1" parent="1" source="UNGKWyFu4V4kKL_8pKXb-8" target="QWLUl-Ayc574_Iat3-mf-19">
          <mxGeometry relative="1" as="geometry" />
        </mxCell>
        <mxCell id="UNGKWyFu4V4kKL_8pKXb-8" value="Nombre Completo" style="ellipse;whiteSpace=wrap;html=1;" vertex="1" parent="1">
          <mxGeometry x="515" y="220" width="90" height="40" as="geometry" />
        </mxCell>
        <mxCell id="UNGKWyFu4V4kKL_8pKXb-9" value="Número de páginas" style="ellipse;whiteSpace=wrap;html=1;" vertex="1" parent="1">
          <mxGeometry x="520" y="302.47" width="120" height="50" as="geometry" />
        </mxCell>
        <mxCell id="UNGKWyFu4V4kKL_8pKXb-10" value="Editorial" style="rounded=0;whiteSpace=wrap;html=1;" vertex="1" parent="1">
          <mxGeometry x="580" y="817.47" width="120" height="60" as="geometry" />
        </mxCell>
        <mxCell id="UNGKWyFu4V4kKL_8pKXb-11" value="&lt;u&gt;Nombre&lt;/u&gt;" style="ellipse;whiteSpace=wrap;html=1;" vertex="1" parent="1">
          <mxGeometry x="710" y="742.47" width="120" height="50" as="geometry" />
        </mxCell>
        <mxCell id="UNGKWyFu4V4kKL_8pKXb-12" value="Ubicación" style="ellipse;whiteSpace=wrap;html=1;" vertex="1" parent="1">
          <mxGeometry x="710" y="922.47" width="120" height="50" as="geometry" />
        </mxCell>
        <mxCell id="UNGKWyFu4V4kKL_8pKXb-56" style="edgeStyle=orthogonalEdgeStyle;rounded=0;orthogonalLoop=1;jettySize=auto;html=1;exitX=0.75;exitY=1;exitDx=0;exitDy=0;entryX=0;entryY=0.5;entryDx=0;entryDy=0;endArrow=none;endFill=0;" edge="1" parent="1" source="UNGKWyFu4V4kKL_8pKXb-13" target="UNGKWyFu4V4kKL_8pKXb-55">
          <mxGeometry relative="1" as="geometry" />
        </mxCell>
        <mxCell id="QWLUl-Ayc574_Iat3-mf-9" value="Padre" style="edgeLabel;html=1;align=center;verticalAlign=middle;resizable=0;points=[];" vertex="1" connectable="0" parent="UNGKWyFu4V4kKL_8pKXb-56">
          <mxGeometry x="-0.1085" y="-2" relative="1" as="geometry">
            <mxPoint as="offset" />
          </mxGeometry>
        </mxCell>
        <mxCell id="UNGKWyFu4V4kKL_8pKXb-13" value="Categoría" style="rounded=0;whiteSpace=wrap;html=1;" vertex="1" parent="1">
          <mxGeometry x="75" y="502.47" width="120" height="60" as="geometry" />
        </mxCell>
        <mxCell id="UNGKWyFu4V4kKL_8pKXb-14" value="&lt;u&gt;Nombre&lt;/u&gt;" style="ellipse;whiteSpace=wrap;html=1;" vertex="1" parent="1">
          <mxGeometry x="5" y="617.47" width="120" height="50" as="geometry" />
        </mxCell>
        <mxCell id="UNGKWyFu4V4kKL_8pKXb-59" style="edgeStyle=orthogonalEdgeStyle;rounded=0;orthogonalLoop=1;jettySize=auto;html=1;exitX=0.75;exitY=0;exitDx=0;exitDy=0;entryX=0.5;entryY=1;entryDx=0;entryDy=0;endArrow=none;endFill=0;" edge="1" parent="1" source="UNGKWyFu4V4kKL_8pKXb-15" target="UNGKWyFu4V4kKL_8pKXb-58">
          <mxGeometry relative="1" as="geometry" />
        </mxCell>
        <mxCell id="UNGKWyFu4V4kKL_8pKXb-15" value="Lector" style="rounded=0;whiteSpace=wrap;html=1;" vertex="1" parent="1">
          <mxGeometry x="335" y="872.47" width="120" height="60" as="geometry" />
        </mxCell>
        <mxCell id="UNGKWyFu4V4kKL_8pKXb-16" value="Nombre Completo" style="ellipse;whiteSpace=wrap;html=1;" vertex="1" parent="1">
          <mxGeometry x="215" y="792.47" width="120" height="50" as="geometry" />
        </mxCell>
        <mxCell id="UNGKWyFu4V4kKL_8pKXb-17" value="Nombre" style="ellipse;whiteSpace=wrap;html=1;" vertex="1" parent="1">
          <mxGeometry x="205" y="722.47" width="110" height="40" as="geometry" />
        </mxCell>
        <mxCell id="UNGKWyFu4V4kKL_8pKXb-18" value="Apellido Paterno" style="ellipse;whiteSpace=wrap;html=1;" vertex="1" parent="1">
          <mxGeometry x="85" y="742.47" width="110" height="40" as="geometry" />
        </mxCell>
        <mxCell id="UNGKWyFu4V4kKL_8pKXb-19" value="Apellido Materno" style="ellipse;whiteSpace=wrap;html=1;" vertex="1" parent="1">
          <mxGeometry x="75" y="812.47" width="110" height="40" as="geometry" />
        </mxCell>
        <mxCell id="UNGKWyFu4V4kKL_8pKXb-20" value="Dirección" style="ellipse;whiteSpace=wrap;html=1;" vertex="1" parent="1">
          <mxGeometry x="155" y="992.47" width="120" height="50" as="geometry" />
        </mxCell>
        <mxCell id="UNGKWyFu4V4kKL_8pKXb-21" value="Fecha de nacimiento" style="ellipse;whiteSpace=wrap;html=1;" vertex="1" parent="1">
          <mxGeometry x="335" y="1022.47" width="120" height="50" as="geometry" />
        </mxCell>
        <mxCell id="UNGKWyFu4V4kKL_8pKXb-22" value="&lt;u&gt;Número de Lector&lt;/u&gt;" style="ellipse;whiteSpace=wrap;html=1;" vertex="1" parent="1">
          <mxGeometry x="135" y="902.47" width="120" height="50" as="geometry" />
        </mxCell>
        <mxCell id="UNGKWyFu4V4kKL_8pKXb-24" value="" style="endArrow=none;html=1;rounded=0;exitX=0;exitY=0.5;exitDx=0;exitDy=0;entryX=0.65;entryY=1.022;entryDx=0;entryDy=0;entryPerimeter=0;" edge="1" parent="1" source="QWLUl-Ayc574_Iat3-mf-1" target="UNGKWyFu4V4kKL_8pKXb-2">
          <mxGeometry width="50" height="50" relative="1" as="geometry">
            <mxPoint x="85" y="452.47" as="sourcePoint" />
            <mxPoint x="95" y="372.47" as="targetPoint" />
          </mxGeometry>
        </mxCell>
        <mxCell id="UNGKWyFu4V4kKL_8pKXb-25" value="" style="endArrow=none;html=1;rounded=0;entryX=0;entryY=1;entryDx=0;entryDy=0;exitX=0.75;exitY=0;exitDx=0;exitDy=0;" edge="1" parent="1" source="UNGKWyFu4V4kKL_8pKXb-10" target="UNGKWyFu4V4kKL_8pKXb-11">
          <mxGeometry width="50" height="50" relative="1" as="geometry">
            <mxPoint x="625" y="787.47" as="sourcePoint" />
            <mxPoint x="675" y="737.47" as="targetPoint" />
          </mxGeometry>
        </mxCell>
        <mxCell id="UNGKWyFu4V4kKL_8pKXb-26" value="" style="endArrow=none;html=1;rounded=0;exitX=0.75;exitY=1;exitDx=0;exitDy=0;entryX=0;entryY=0;entryDx=0;entryDy=0;" edge="1" parent="1" source="UNGKWyFu4V4kKL_8pKXb-10" target="UNGKWyFu4V4kKL_8pKXb-12">
          <mxGeometry width="50" height="50" relative="1" as="geometry">
            <mxPoint x="535" y="817.47" as="sourcePoint" />
            <mxPoint x="710" y="827.47" as="targetPoint" />
          </mxGeometry>
        </mxCell>
        <mxCell id="UNGKWyFu4V4kKL_8pKXb-27" value="" style="endArrow=none;html=1;rounded=0;entryX=0.136;entryY=-0.031;entryDx=0;entryDy=0;entryPerimeter=0;exitX=1;exitY=1;exitDx=0;exitDy=0;" edge="1" parent="1" source="UNGKWyFu4V4kKL_8pKXb-16" target="UNGKWyFu4V4kKL_8pKXb-15">
          <mxGeometry width="50" height="50" relative="1" as="geometry">
            <mxPoint x="295" y="892.47" as="sourcePoint" />
            <mxPoint x="345" y="842.47" as="targetPoint" />
          </mxGeometry>
        </mxCell>
        <mxCell id="UNGKWyFu4V4kKL_8pKXb-28" value="" style="endArrow=none;html=1;rounded=0;entryX=0;entryY=0.5;entryDx=0;entryDy=0;exitX=1;exitY=0.5;exitDx=0;exitDy=0;" edge="1" parent="1" source="UNGKWyFu4V4kKL_8pKXb-22" target="UNGKWyFu4V4kKL_8pKXb-15">
          <mxGeometry width="50" height="50" relative="1" as="geometry">
            <mxPoint x="265" y="942.47" as="sourcePoint" />
            <mxPoint x="315" y="892.47" as="targetPoint" />
          </mxGeometry>
        </mxCell>
        <mxCell id="UNGKWyFu4V4kKL_8pKXb-29" value="" style="endArrow=none;html=1;rounded=0;entryX=0;entryY=1;entryDx=0;entryDy=0;" edge="1" parent="1" target="UNGKWyFu4V4kKL_8pKXb-15">
          <mxGeometry width="50" height="50" relative="1" as="geometry">
            <mxPoint x="265" y="1002.47" as="sourcePoint" />
            <mxPoint x="315" y="952.47" as="targetPoint" />
          </mxGeometry>
        </mxCell>
        <mxCell id="UNGKWyFu4V4kKL_8pKXb-30" value="" style="endArrow=none;html=1;rounded=0;entryX=0.5;entryY=1;entryDx=0;entryDy=0;exitX=0.5;exitY=0;exitDx=0;exitDy=0;" edge="1" parent="1" source="UNGKWyFu4V4kKL_8pKXb-21" target="UNGKWyFu4V4kKL_8pKXb-15">
          <mxGeometry width="50" height="50" relative="1" as="geometry">
            <mxPoint x="395" y="1012.47" as="sourcePoint" />
            <mxPoint x="445" y="962.47" as="targetPoint" />
          </mxGeometry>
        </mxCell>
        <mxCell id="UNGKWyFu4V4kKL_8pKXb-31" value="" style="endArrow=none;html=1;rounded=0;entryX=0.5;entryY=1;entryDx=0;entryDy=0;" edge="1" parent="1" target="UNGKWyFu4V4kKL_8pKXb-17">
          <mxGeometry width="50" height="50" relative="1" as="geometry">
            <mxPoint x="275" y="792.47" as="sourcePoint" />
            <mxPoint x="325" y="742.47" as="targetPoint" />
          </mxGeometry>
        </mxCell>
        <mxCell id="UNGKWyFu4V4kKL_8pKXb-32" value="" style="endArrow=none;html=1;rounded=0;entryX=0.094;entryY=0.23;entryDx=0;entryDy=0;entryPerimeter=0;" edge="1" parent="1" source="UNGKWyFu4V4kKL_8pKXb-18" target="UNGKWyFu4V4kKL_8pKXb-16">
          <mxGeometry width="50" height="50" relative="1" as="geometry">
            <mxPoint x="175" y="842.47" as="sourcePoint" />
            <mxPoint x="225" y="792.47" as="targetPoint" />
          </mxGeometry>
        </mxCell>
        <mxCell id="UNGKWyFu4V4kKL_8pKXb-33" value="" style="endArrow=none;html=1;rounded=0;entryX=0;entryY=0.5;entryDx=0;entryDy=0;" edge="1" parent="1" target="UNGKWyFu4V4kKL_8pKXb-16">
          <mxGeometry width="50" height="50" relative="1" as="geometry">
            <mxPoint x="185" y="832.47" as="sourcePoint" />
            <mxPoint x="235" y="782.47" as="targetPoint" />
          </mxGeometry>
        </mxCell>
        <mxCell id="UNGKWyFu4V4kKL_8pKXb-34" value="" style="endArrow=none;html=1;rounded=0;entryX=0.5;entryY=1;entryDx=0;entryDy=0;" edge="1" parent="1" target="UNGKWyFu4V4kKL_8pKXb-9">
          <mxGeometry width="50" height="50" relative="1" as="geometry">
            <mxPoint x="595" y="392.47" as="sourcePoint" />
            <mxPoint x="645" y="342.47" as="targetPoint" />
          </mxGeometry>
        </mxCell>
        <mxCell id="UNGKWyFu4V4kKL_8pKXb-35" value="" style="endArrow=none;html=1;rounded=0;" edge="1" parent="1">
          <mxGeometry width="50" height="50" relative="1" as="geometry">
            <mxPoint x="635" y="392.47" as="sourcePoint" />
            <mxPoint x="665" y="362.47" as="targetPoint" />
          </mxGeometry>
        </mxCell>
        <mxCell id="UNGKWyFu4V4kKL_8pKXb-37" value="" style="endArrow=none;html=1;rounded=0;entryX=0;entryY=0.5;entryDx=0;entryDy=0;" edge="1" parent="1" target="UNGKWyFu4V4kKL_8pKXb-6">
          <mxGeometry width="50" height="50" relative="1" as="geometry">
            <mxPoint x="655" y="422.47" as="sourcePoint" />
            <mxPoint x="705" y="372.47" as="targetPoint" />
          </mxGeometry>
        </mxCell>
        <mxCell id="UNGKWyFu4V4kKL_8pKXb-39" value="" style="endArrow=none;html=1;rounded=0;entryX=1;entryY=0.75;entryDx=0;entryDy=0;exitX=0;exitY=0;exitDx=0;exitDy=0;" edge="1" parent="1" source="UNGKWyFu4V4kKL_8pKXb-7" target="UNGKWyFu4V4kKL_8pKXb-4">
          <mxGeometry width="50" height="50" relative="1" as="geometry">
            <mxPoint x="635" y="542.47" as="sourcePoint" />
            <mxPoint x="685" y="492.47" as="targetPoint" />
          </mxGeometry>
        </mxCell>
        <mxCell id="UNGKWyFu4V4kKL_8pKXb-40" value="" style="endArrow=none;html=1;rounded=0;entryX=0.25;entryY=1;entryDx=0;entryDy=0;" edge="1" parent="1" source="UNGKWyFu4V4kKL_8pKXb-14" target="UNGKWyFu4V4kKL_8pKXb-13">
          <mxGeometry width="50" height="50" relative="1" as="geometry">
            <mxPoint x="175" y="602.47" as="sourcePoint" />
            <mxPoint x="225" y="552.47" as="targetPoint" />
          </mxGeometry>
        </mxCell>
        <mxCell id="UNGKWyFu4V4kKL_8pKXb-53" style="edgeStyle=orthogonalEdgeStyle;rounded=0;orthogonalLoop=1;jettySize=auto;html=1;entryX=1;entryY=0.5;entryDx=0;entryDy=0;endArrow=none;endFill=0;shape=link;" edge="1" parent="1" source="UNGKWyFu4V4kKL_8pKXb-43" target="QWLUl-Ayc574_Iat3-mf-1">
          <mxGeometry relative="1" as="geometry" />
        </mxCell>
        <mxCell id="UNGKWyFu4V4kKL_8pKXb-54" style="edgeStyle=orthogonalEdgeStyle;rounded=0;orthogonalLoop=1;jettySize=auto;html=1;entryX=-0.005;entryY=0.349;entryDx=0;entryDy=0;exitX=1;exitY=0.5;exitDx=0;exitDy=0;entryPerimeter=0;" edge="1" parent="1" source="UNGKWyFu4V4kKL_8pKXb-43" target="UNGKWyFu4V4kKL_8pKXb-4">
          <mxGeometry relative="1" as="geometry">
            <Array as="points">
              <mxPoint x="415" y="413" />
              <mxPoint x="534" y="413" />
            </Array>
            <mxPoint x="415" y="412.47" as="sourcePoint" />
          </mxGeometry>
        </mxCell>
        <mxCell id="UNGKWyFu4V4kKL_8pKXb-43" value="Tener" style="rhombus;whiteSpace=wrap;html=1;" vertex="1" parent="1">
          <mxGeometry x="330" y="372.47" width="80" height="80" as="geometry" />
        </mxCell>
        <mxCell id="UNGKWyFu4V4kKL_8pKXb-48" style="edgeStyle=orthogonalEdgeStyle;rounded=0;orthogonalLoop=1;jettySize=auto;html=1;entryX=0.25;entryY=0;entryDx=0;entryDy=0;endArrow=classic;endFill=1;shape=flexArrow;" edge="1" parent="1" source="UNGKWyFu4V4kKL_8pKXb-45" target="UNGKWyFu4V4kKL_8pKXb-10">
          <mxGeometry relative="1" as="geometry">
            <Array as="points">
              <mxPoint x="580" y="780" />
              <mxPoint x="610" y="780" />
            </Array>
          </mxGeometry>
        </mxCell>
        <mxCell id="UNGKWyFu4V4kKL_8pKXb-45" value="Publicar" style="rhombus;whiteSpace=wrap;html=1;" vertex="1" parent="1">
          <mxGeometry x="545" y="620" width="80" height="80" as="geometry" />
        </mxCell>
        <mxCell id="UNGKWyFu4V4kKL_8pKXb-47" style="edgeStyle=orthogonalEdgeStyle;rounded=0;orthogonalLoop=1;jettySize=auto;html=1;exitX=0.5;exitY=0;exitDx=0;exitDy=0;endArrow=none;endFill=0;shape=link;width=9.166666666666668;entryX=0.532;entryY=0.992;entryDx=0;entryDy=0;entryPerimeter=0;" edge="1" parent="1" source="UNGKWyFu4V4kKL_8pKXb-45" target="UNGKWyFu4V4kKL_8pKXb-4">
          <mxGeometry relative="1" as="geometry">
            <Array as="points">
              <mxPoint x="585" y="480" />
              <mxPoint x="599" y="480" />
              <mxPoint x="599" y="470" />
            </Array>
            <mxPoint x="590" y="500" as="targetPoint" />
          </mxGeometry>
        </mxCell>
        <mxCell id="UNGKWyFu4V4kKL_8pKXb-51" style="edgeStyle=orthogonalEdgeStyle;rounded=0;orthogonalLoop=1;jettySize=auto;html=1;entryX=1;entryY=0.5;entryDx=0;entryDy=0;endArrow=none;endFill=0;" edge="1" parent="1" source="UNGKWyFu4V4kKL_8pKXb-49" target="UNGKWyFu4V4kKL_8pKXb-13">
          <mxGeometry relative="1" as="geometry" />
        </mxCell>
        <mxCell id="UNGKWyFu4V4kKL_8pKXb-52" style="edgeStyle=orthogonalEdgeStyle;rounded=0;orthogonalLoop=1;jettySize=auto;html=1;entryX=-0.011;entryY=0.784;entryDx=0;entryDy=0;entryPerimeter=0;endArrow=none;endFill=0;shape=link;" edge="1" parent="1" source="UNGKWyFu4V4kKL_8pKXb-49" target="UNGKWyFu4V4kKL_8pKXb-4">
          <mxGeometry relative="1" as="geometry">
            <Array as="points">
              <mxPoint x="445" y="533" />
              <mxPoint x="445" y="472" />
              <mxPoint x="495" y="472" />
              <mxPoint x="495" y="440" />
              <mxPoint x="534" y="440" />
            </Array>
            <mxPoint x="525" y="412.47" as="targetPoint" />
          </mxGeometry>
        </mxCell>
        <mxCell id="UNGKWyFu4V4kKL_8pKXb-49" value="Asignar" style="rhombus;whiteSpace=wrap;html=1;" vertex="1" parent="1">
          <mxGeometry x="295" y="492.47" width="80" height="80" as="geometry" />
        </mxCell>
        <mxCell id="UNGKWyFu4V4kKL_8pKXb-57" value="Hijo" style="edgeStyle=orthogonalEdgeStyle;rounded=0;orthogonalLoop=1;jettySize=auto;html=1;entryX=1;entryY=0.75;entryDx=0;entryDy=0;endArrow=none;endFill=0;shape=link;" edge="1" parent="1" source="UNGKWyFu4V4kKL_8pKXb-55" target="UNGKWyFu4V4kKL_8pKXb-13">
          <mxGeometry relative="1" as="geometry" />
        </mxCell>
        <mxCell id="UNGKWyFu4V4kKL_8pKXb-55" value="Ser subcategoría de" style="rhombus;whiteSpace=wrap;html=1;" vertex="1" parent="1">
          <mxGeometry x="195" y="602.47" width="80" height="80" as="geometry" />
        </mxCell>
        <mxCell id="UNGKWyFu4V4kKL_8pKXb-58" value="Pedir" style="rhombus;whiteSpace=wrap;html=1;" vertex="1" parent="1">
          <mxGeometry x="385" y="712.47" width="80" height="80" as="geometry" />
        </mxCell>
        <mxCell id="QWLUl-Ayc574_Iat3-mf-2" value="Tener" style="rhombus;whiteSpace=wrap;html=1;" vertex="1" parent="1">
          <mxGeometry x="335" y="377.47" width="70" height="70" as="geometry" />
        </mxCell>
        <mxCell id="QWLUl-Ayc574_Iat3-mf-3" value="Estante" style="rounded=0;whiteSpace=wrap;html=1;" vertex="1" parent="1">
          <mxGeometry x="195" y="210" width="80" height="50" as="geometry" />
        </mxCell>
        <mxCell id="QWLUl-Ayc574_Iat3-mf-5" style="edgeStyle=orthogonalEdgeStyle;rounded=0;orthogonalLoop=1;jettySize=auto;html=1;exitX=0.5;exitY=0;exitDx=0;exitDy=0;" edge="1" parent="1" source="QWLUl-Ayc574_Iat3-mf-4">
          <mxGeometry relative="1" as="geometry">
            <mxPoint x="234.74000000000012" y="279.97000000000014" as="sourcePoint" />
            <mxPoint x="234.74" y="262" as="targetPoint" />
          </mxGeometry>
        </mxCell>
        <mxCell id="QWLUl-Ayc574_Iat3-mf-8" style="edgeStyle=orthogonalEdgeStyle;rounded=0;orthogonalLoop=1;jettySize=auto;html=1;exitX=0.5;exitY=1;exitDx=0;exitDy=0;entryX=0.5;entryY=0;entryDx=0;entryDy=0;endArrow=none;endFill=0;shape=link;" edge="1" parent="1" source="QWLUl-Ayc574_Iat3-mf-4" target="QWLUl-Ayc574_Iat3-mf-1">
          <mxGeometry relative="1" as="geometry" />
        </mxCell>
        <mxCell id="QWLUl-Ayc574_Iat3-mf-4" value="Asignar" style="rhombus;whiteSpace=wrap;html=1;" vertex="1" parent="1">
          <mxGeometry x="205" y="289.97" width="60" height="55" as="geometry" />
        </mxCell>
        <mxCell id="QWLUl-Ayc574_Iat3-mf-10" value="Fecha de devolución" style="ellipse;whiteSpace=wrap;html=1;" vertex="1" parent="1">
          <mxGeometry x="445" y="797.47" width="90" height="45" as="geometry" />
        </mxCell>
        <mxCell id="QWLUl-Ayc574_Iat3-mf-11" style="edgeStyle=orthogonalEdgeStyle;rounded=0;orthogonalLoop=1;jettySize=auto;html=1;exitX=1;exitY=1;exitDx=0;exitDy=0;entryX=0;entryY=0;entryDx=0;entryDy=0;endArrow=none;endFill=0;" edge="1" parent="1" source="UNGKWyFu4V4kKL_8pKXb-58" target="QWLUl-Ayc574_Iat3-mf-10">
          <mxGeometry relative="1" as="geometry" />
        </mxCell>
        <mxCell id="QWLUl-Ayc574_Iat3-mf-12" value="" style="endArrow=none;dashed=1;html=1;rounded=0;entryX=0.994;entryY=0.64;entryDx=0;entryDy=0;exitX=0.022;exitY=0.64;exitDx=0;exitDy=0;exitPerimeter=0;entryPerimeter=0;" edge="1" parent="1" source="UNGKWyFu4V4kKL_8pKXb-2" target="UNGKWyFu4V4kKL_8pKXb-2">
          <mxGeometry width="50" height="50" relative="1" as="geometry">
            <mxPoint x="45" y="372.47" as="sourcePoint" />
            <mxPoint x="95" y="322.47" as="targetPoint" />
          </mxGeometry>
        </mxCell>
        <mxCell id="QWLUl-Ayc574_Iat3-mf-21" style="edgeStyle=orthogonalEdgeStyle;rounded=0;orthogonalLoop=1;jettySize=auto;html=1;entryX=1;entryY=1;entryDx=0;entryDy=0;endArrow=none;endFill=0;" edge="1" parent="1" source="QWLUl-Ayc574_Iat3-mf-13" target="QWLUl-Ayc574_Iat3-mf-15">
          <mxGeometry relative="1" as="geometry" />
        </mxCell>
        <mxCell id="QWLUl-Ayc574_Iat3-mf-22" style="edgeStyle=orthogonalEdgeStyle;rounded=0;orthogonalLoop=1;jettySize=auto;html=1;entryX=1;entryY=1;entryDx=0;entryDy=0;endArrow=none;endFill=0;" edge="1" parent="1" source="QWLUl-Ayc574_Iat3-mf-13" target="QWLUl-Ayc574_Iat3-mf-14">
          <mxGeometry relative="1" as="geometry" />
        </mxCell>
        <mxCell id="QWLUl-Ayc574_Iat3-mf-23" style="edgeStyle=orthogonalEdgeStyle;rounded=0;orthogonalLoop=1;jettySize=auto;html=1;exitX=0.75;exitY=0;exitDx=0;exitDy=0;entryX=0.5;entryY=1;entryDx=0;entryDy=0;endArrow=none;endFill=0;" edge="1" parent="1" source="QWLUl-Ayc574_Iat3-mf-13" target="QWLUl-Ayc574_Iat3-mf-16">
          <mxGeometry relative="1" as="geometry" />
        </mxCell>
        <mxCell id="QWLUl-Ayc574_Iat3-mf-24" style="edgeStyle=orthogonalEdgeStyle;rounded=0;orthogonalLoop=1;jettySize=auto;html=1;exitX=1;exitY=0;exitDx=0;exitDy=0;entryX=0;entryY=0.5;entryDx=0;entryDy=0;endArrow=none;endFill=0;" edge="1" parent="1" source="QWLUl-Ayc574_Iat3-mf-13" target="UNGKWyFu4V4kKL_8pKXb-8">
          <mxGeometry relative="1" as="geometry" />
        </mxCell>
        <mxCell id="QWLUl-Ayc574_Iat3-mf-13" value="Autor" style="rounded=0;whiteSpace=wrap;html=1;" vertex="1" parent="1">
          <mxGeometry x="425" y="277.47" width="70" height="35" as="geometry" />
        </mxCell>
        <mxCell id="QWLUl-Ayc574_Iat3-mf-14" value="Nacionalidad" style="ellipse;whiteSpace=wrap;html=1;" vertex="1" parent="1">
          <mxGeometry x="310" y="249.97" width="90" height="40" as="geometry" />
        </mxCell>
        <mxCell id="QWLUl-Ayc574_Iat3-mf-15" value="Año de Nacimiento" style="ellipse;whiteSpace=wrap;html=1;" vertex="1" parent="1">
          <mxGeometry x="355" y="200" width="90" height="40" as="geometry" />
        </mxCell>
        <mxCell id="QWLUl-Ayc574_Iat3-mf-16" value="Edad" style="ellipse;whiteSpace=wrap;html=1;dashed=1;" vertex="1" parent="1">
          <mxGeometry x="445" y="180" width="90" height="40" as="geometry" />
        </mxCell>
        <mxCell id="QWLUl-Ayc574_Iat3-mf-17" value="Nombre" style="ellipse;whiteSpace=wrap;html=1;" vertex="1" parent="1">
          <mxGeometry x="550" y="160" width="90" height="40" as="geometry" />
        </mxCell>
        <mxCell id="QWLUl-Ayc574_Iat3-mf-18" value="Apellido Paterno" style="ellipse;whiteSpace=wrap;html=1;" vertex="1" parent="1">
          <mxGeometry x="645" y="170" width="90" height="40" as="geometry" />
        </mxCell>
        <mxCell id="QWLUl-Ayc574_Iat3-mf-19" value="Apellido Materno" style="ellipse;whiteSpace=wrap;html=1;" vertex="1" parent="1">
          <mxGeometry x="655" y="220" width="90" height="40" as="geometry" />
        </mxCell>
        <mxCell id="QWLUl-Ayc574_Iat3-mf-30" style="edgeStyle=orthogonalEdgeStyle;rounded=0;orthogonalLoop=1;jettySize=auto;html=1;entryX=0.25;entryY=0;entryDx=0;entryDy=0;endArrow=none;endFill=0;shape=link;" edge="1" parent="1" source="QWLUl-Ayc574_Iat3-mf-28" target="UNGKWyFu4V4kKL_8pKXb-4">
          <mxGeometry relative="1" as="geometry">
            <Array as="points">
              <mxPoint x="513" y="380" />
              <mxPoint x="565" y="380" />
            </Array>
          </mxGeometry>
        </mxCell>
        <mxCell id="QWLUl-Ayc574_Iat3-mf-28" value="Escribir" style="rhombus;whiteSpace=wrap;html=1;" vertex="1" parent="1">
          <mxGeometry x="430" y="352.47" width="60" height="55.53" as="geometry" />
        </mxCell>
        <mxCell id="uDJp7LK6BAgmov9QdYrh-1" value="Calle" style="ellipse;whiteSpace=wrap;html=1;" vertex="1" parent="1">
          <mxGeometry x="590" y="960" width="80" height="48" as="geometry" />
        </mxCell>
        <mxCell id="uDJp7LK6BAgmov9QdYrh-2" value="Estado" style="ellipse;whiteSpace=wrap;html=1;" vertex="1" parent="1">
          <mxGeometry x="655" y="1000" width="80" height="48" as="geometry" />
        </mxCell>
        <mxCell id="uDJp7LK6BAgmov9QdYrh-3" value="Número exterior" style="ellipse;whiteSpace=wrap;html=1;" vertex="1" parent="1">
          <mxGeometry x="750" y="1000" width="80" height="48" as="geometry" />
        </mxCell>
        <mxCell id="uDJp7LK6BAgmov9QdYrh-4" value="Calle" style="ellipse;whiteSpace=wrap;html=1;" vertex="1" parent="1">
          <mxGeometry x="25" y="960" width="80" height="48" as="geometry" />
        </mxCell>
        <mxCell id="uDJp7LK6BAgmov9QdYrh-5" value="Estado" style="ellipse;whiteSpace=wrap;html=1;" vertex="1" parent="1">
          <mxGeometry x="35" y="1022.47" width="80" height="48" as="geometry" />
        </mxCell>
        <mxCell id="uDJp7LK6BAgmov9QdYrh-6" value="Número exterior" style="ellipse;whiteSpace=wrap;html=1;" vertex="1" parent="1">
          <mxGeometry x="135" y="1048" width="80" height="48" as="geometry" />
        </mxCell>
        <mxCell id="uDJp7LK6BAgmov9QdYrh-7" value="" style="endArrow=none;html=1;rounded=0;entryX=0;entryY=0;entryDx=0;entryDy=0;exitX=1;exitY=0.5;exitDx=0;exitDy=0;" edge="1" parent="1" source="uDJp7LK6BAgmov9QdYrh-4" target="UNGKWyFu4V4kKL_8pKXb-20">
          <mxGeometry width="50" height="50" relative="1" as="geometry">
            <mxPoint x="130" y="1000" as="sourcePoint" />
            <mxPoint x="180" y="950" as="targetPoint" />
          </mxGeometry>
        </mxCell>
        <mxCell id="uDJp7LK6BAgmov9QdYrh-8" value="" style="endArrow=none;html=1;rounded=0;entryX=0;entryY=0.5;entryDx=0;entryDy=0;exitX=1;exitY=0.5;exitDx=0;exitDy=0;" edge="1" parent="1" source="uDJp7LK6BAgmov9QdYrh-5" target="UNGKWyFu4V4kKL_8pKXb-20">
          <mxGeometry width="50" height="50" relative="1" as="geometry">
            <mxPoint x="75" y="1009.47" as="sourcePoint" />
            <mxPoint x="142" y="1025.47" as="targetPoint" />
          </mxGeometry>
        </mxCell>
        <mxCell id="uDJp7LK6BAgmov9QdYrh-9" value="" style="endArrow=none;html=1;rounded=0;entryX=0;entryY=1;entryDx=0;entryDy=0;exitX=0.5;exitY=0;exitDx=0;exitDy=0;" edge="1" parent="1" source="uDJp7LK6BAgmov9QdYrh-6" target="UNGKWyFu4V4kKL_8pKXb-20">
          <mxGeometry width="50" height="50" relative="1" as="geometry">
            <mxPoint x="125" y="1056" as="sourcePoint" />
            <mxPoint x="165" y="1027" as="targetPoint" />
          </mxGeometry>
        </mxCell>
        <mxCell id="uDJp7LK6BAgmov9QdYrh-11" value="" style="endArrow=none;html=1;rounded=0;exitX=1;exitY=0;exitDx=0;exitDy=0;entryX=0;entryY=0.5;entryDx=0;entryDy=0;" edge="1" parent="1" source="uDJp7LK6BAgmov9QdYrh-1" target="UNGKWyFu4V4kKL_8pKXb-12">
          <mxGeometry width="50" height="50" relative="1" as="geometry">
            <mxPoint x="660" y="990" as="sourcePoint" />
            <mxPoint x="710" y="940" as="targetPoint" />
          </mxGeometry>
        </mxCell>
        <mxCell id="uDJp7LK6BAgmov9QdYrh-12" value="" style="endArrow=none;html=1;rounded=0;exitX=0.5;exitY=0;exitDx=0;exitDy=0;entryX=0;entryY=1;entryDx=0;entryDy=0;" edge="1" parent="1" source="uDJp7LK6BAgmov9QdYrh-2" target="UNGKWyFu4V4kKL_8pKXb-12">
          <mxGeometry width="50" height="50" relative="1" as="geometry">
            <mxPoint x="668" y="977" as="sourcePoint" />
            <mxPoint x="720" y="957" as="targetPoint" />
          </mxGeometry>
        </mxCell>
        <mxCell id="uDJp7LK6BAgmov9QdYrh-13" value="" style="endArrow=none;html=1;rounded=0;exitX=0.5;exitY=0;exitDx=0;exitDy=0;entryX=0.5;entryY=1;entryDx=0;entryDy=0;" edge="1" parent="1" source="uDJp7LK6BAgmov9QdYrh-3" target="UNGKWyFu4V4kKL_8pKXb-12">
          <mxGeometry width="50" height="50" relative="1" as="geometry">
            <mxPoint x="705" y="1010" as="sourcePoint" />
            <mxPoint x="737" y="975" as="targetPoint" />
          </mxGeometry>
        </mxCell>
        <mxCell id="da417k7D7eE08MQxrB-j-3" value="Número de estante" style="ellipse;whiteSpace=wrap;html=1;align=center;fontStyle=4;" vertex="1" parent="1">
          <mxGeometry x="185" y="110" width="100" height="40" as="geometry" />
        </mxCell>
        <mxCell id="da417k7D7eE08MQxrB-j-4" value="" style="endArrow=none;html=1;rounded=0;exitX=0.5;exitY=1;exitDx=0;exitDy=0;entryX=0.5;entryY=0;entryDx=0;entryDy=0;" edge="1" parent="1" source="da417k7D7eE08MQxrB-j-3" target="QWLUl-Ayc574_Iat3-mf-3">
          <mxGeometry relative="1" as="geometry">
            <mxPoint x="70" y="200" as="sourcePoint" />
            <mxPoint x="230" y="200" as="targetPoint" />
          </mxGeometry>
        </mxCell>
        <mxCell id="da417k7D7eE08MQxrB-j-6" value="" style="endArrow=block;html=1;rounded=0;shape=flexArrow;entryX=0.5;entryY=1;entryDx=0;entryDy=0;" edge="1" parent="1" target="QWLUl-Ayc574_Iat3-mf-13">
          <mxGeometry relative="1" as="geometry">
            <mxPoint x="460" y="350" as="sourcePoint" />
            <mxPoint x="460" y="350" as="targetPoint" />
          </mxGeometry>
        </mxCell>
        <mxCell id="da417k7D7eE08MQxrB-j-12" value="Edad" style="ellipse;whiteSpace=wrap;html=1;dashed=1;" vertex="1" parent="1">
          <mxGeometry x="435" y="982.47" width="90" height="40" as="geometry" />
        </mxCell>
        <mxCell id="da417k7D7eE08MQxrB-j-13" value="" style="endArrow=none;html=1;rounded=0;exitX=0.75;exitY=1;exitDx=0;exitDy=0;entryX=0.5;entryY=0;entryDx=0;entryDy=0;" edge="1" parent="1" source="UNGKWyFu4V4kKL_8pKXb-15" target="da417k7D7eE08MQxrB-j-12">
          <mxGeometry relative="1" as="geometry">
            <mxPoint x="410" y="970" as="sourcePoint" />
            <mxPoint x="570" y="970" as="targetPoint" />
          </mxGeometry>
        </mxCell>
        <mxCell id="MXlVpzba_yDXIsTorrrH-1" value="id autor" style="ellipse;whiteSpace=wrap;html=1;align=center;fontStyle=4;" vertex="1" parent="1">
          <mxGeometry x="680" y="262.47" width="100" height="40" as="geometry" />
        </mxCell>
        <mxCell id="MXlVpzba_yDXIsTorrrH-2" value="" style="endArrow=none;html=1;rounded=0;exitX=1;exitY=0.5;exitDx=0;exitDy=0;" edge="1" parent="1" source="QWLUl-Ayc574_Iat3-mf-13">
          <mxGeometry width="50" height="50" relative="1" as="geometry">
            <mxPoint x="530" y="320" as="sourcePoint" />
            <mxPoint x="680" y="280" as="targetPoint" />
          </mxGeometry>
        </mxCell>
      </root>
    </mxGraphModel>
  </diagram>
</mxfile>
